<?xml version="1.0" encoding="UTF-8"?>
<svg id="Camada_2" data-name="Camada 2" xmlns="http://www.w3.org/2000/svg" viewBox="0 0 138.71 93.88">
  <defs>
    <style>
      .cls-1 {
        fill: #35669a;
      }

      .cls-2 {
        fill: none;
        stroke: #e83b3c;
        stroke-linecap: round;
        stroke-linejoin: round;
        stroke-width: 6.02px;
      }
    </style>
  </defs>
  <g id="Camada_1-2" data-name="Camada 1">
    <g>
      <g>
        <path class="cls-1" d="m3.21,46.79V11.63h7.37v29.49h17.31v5.68H3.21Z"/>
        <path class="cls-1" d="m31.61,46.79V11.63h24.74v5.73h-17.36v9.01h15.34v5.68h-15.34v14.74h-7.37Z"/>
        <path class="cls-1" d="m107.14,46.79V11.63h16.49c2.77,0,5.03.53,6.8,1.58,1.77,1.06,3.09,2.5,3.96,4.31.87,1.82,1.31,3.9,1.31,6.22s-.5,4.46-1.5,6.28c-1,1.82-2.42,3.23-4.26,4.23-1.84,1-4.01,1.5-6.52,1.5h-8.9v11.03h-7.37Zm7.37-16.87h7.37c2.11,0,3.7-.56,4.78-1.67s1.61-2.61,1.61-4.51c0-2.04-.51-3.59-1.53-4.67-1.02-1.08-2.55-1.61-4.59-1.61h-7.65v12.45Z"/>
      </g>
      <g>
        <path class="cls-1" d="m3.21,77v-9.69h1.62v8.12h3.81v1.57H3.21Z"/>
        <path class="cls-1" d="m9.3,77l2.96-9.69h1.78l2.95,9.69h-1.68l-.73-2.33h-2.85l-.72,2.33h-1.7Zm2.66-3.9h2.37l-1.19-3.89-1.18,3.89Z"/>
        <path class="cls-1" d="m18.12,77v-9.69h3.92c.78,0,1.36.23,1.74.68.38.46.57,1.1.57,1.93,0,.52-.08.96-.24,1.3s-.38.61-.65.8c.36.14.65.37.86.7s.32.8.32,1.44c0,.93-.21,1.64-.63,2.11-.42.48-1.03.72-1.82.72h-4.07Zm1.62-5.67h2c.39,0,.67-.11.84-.32.17-.22.25-.52.25-.91,0-.43-.09-.75-.26-.96s-.49-.32-.96-.32h-1.88v2.51Zm0,4.18h2.06c.41,0,.71-.11.9-.32.19-.21.29-.58.29-1.11,0-.43-.09-.75-.28-.96-.19-.21-.53-.32-1.02-.32h-1.95v2.71Z"/>
        <path class="cls-1" d="m29.3,77.15c-2.51,0-3.77-1.65-3.77-4.95,0-1.78.32-3.06.95-3.85s1.57-1.19,2.82-1.19,2.18.4,2.82,1.19.95,2.08.95,3.85c0,3.3-1.26,4.95-3.77,4.95Zm0-1.73c.73,0,1.27-.26,1.61-.79.34-.53.51-1.34.51-2.43,0-1.21-.17-2.07-.51-2.57-.34-.5-.88-.74-1.61-.74s-1.27.25-1.61.74c-.34.5-.51,1.35-.51,2.57,0,1.09.17,1.9.51,2.43.34.53.88.79,1.61.79Z"/>
        <path class="cls-1" d="m34.2,77v-9.69h3.72c.89,0,1.55.29,1.96.88.42.59.63,1.38.63,2.37,0,.65-.13,1.21-.4,1.68-.27.47-.65.81-1.14,1.02.13.13.23.27.31.42.08.15.15.35.23.6l.94,2.71h-1.68l-.92-2.6c-.08-.22-.17-.38-.26-.47s-.26-.14-.48-.14h-1.28v3.21h-1.62Zm1.62-4.89h1.67c.42,0,.76-.12,1-.35.24-.24.36-.63.36-1.2s-.1-.94-.31-1.19c-.21-.25-.53-.38-.95-.38h-1.77v3.12Z"/>
        <path class="cls-1" d="m40.85,77l2.96-9.69h1.78l2.95,9.69h-1.68l-.73-2.33h-2.85l-.72,2.33h-1.7Zm2.66-3.9h2.37l-1.19-3.89-1.18,3.89Z"/>
        <path class="cls-1" d="m50.55,77v-8.12h-2.38v-1.56h6.38v1.56h-2.37v8.12h-1.62Z"/>
        <path class="cls-1" d="m58.73,77.15c-2.51,0-3.77-1.65-3.77-4.95,0-1.78.32-3.06.95-3.85s1.57-1.19,2.82-1.19,2.18.4,2.82,1.19.95,2.08.95,3.85c0,3.3-1.26,4.95-3.77,4.95Zm0-1.73c.73,0,1.27-.26,1.61-.79.34-.53.51-1.34.51-2.43,0-1.21-.17-2.07-.51-2.57-.34-.5-.88-.74-1.61-.74s-1.27.25-1.61.74c-.34.5-.51,1.35-.51,2.57,0,1.09.17,1.9.51,2.43.34.53.88.79,1.61.79Zm-.75-8.77l.96-2.81h1.41l-1.06,2.81h-1.31Z"/>
        <path class="cls-1" d="m63.62,77v-9.69h3.72c.89,0,1.55.29,1.96.88.42.59.63,1.38.63,2.37,0,.65-.13,1.21-.4,1.68-.27.47-.65.81-1.14,1.02.13.13.23.27.31.42.08.15.15.35.23.6l.94,2.71h-1.68l-.92-2.6c-.08-.22-.17-.38-.26-.47s-.26-.14-.48-.14h-1.28v3.21h-1.62Zm1.62-4.89h1.67c.42,0,.76-.12,1-.35.24-.24.36-.63.36-1.2s-.1-.94-.31-1.19c-.21-.25-.53-.38-.95-.38h-1.77v3.12Z"/>
        <path class="cls-1" d="m71.06,77v-9.69h1.62v9.69h-1.62Z"/>
        <path class="cls-1" d="m77.58,77.15c-2.51,0-3.77-1.65-3.77-4.95,0-1.78.32-3.06.95-3.85s1.57-1.19,2.82-1.19,2.18.4,2.82,1.19.95,2.08.95,3.85c0,3.3-1.26,4.95-3.77,4.95Zm0-1.73c.73,0,1.27-.26,1.61-.79.34-.53.51-1.34.51-2.43,0-1.21-.17-2.07-.51-2.57-.34-.5-.88-.74-1.61-.74s-1.27.25-1.61.74c-.34.5-.51,1.35-.51,2.57,0,1.09.17,1.9.51,2.43.34.53.88.79,1.61.79Z"/>
        <path class="cls-1" d="m85.13,77v-9.69h3.25c1.16,0,2.04.37,2.63,1.12.59.75.88,2,.88,3.77,0,1.66-.29,2.88-.87,3.65-.58.77-1.46,1.15-2.64,1.15h-3.25Zm1.62-1.57h1.4c.46,0,.84-.09,1.15-.26.31-.18.55-.5.7-.96s.24-1.14.24-2.01-.07-1.54-.22-2c-.15-.46-.37-.78-.67-.95-.31-.17-.71-.26-1.2-.26h-1.4v6.44Z"/>
        <path class="cls-1" d="m93.02,77v-9.69h5.56v1.58h-3.94v2.48h3.49v1.56h-3.49v2.5h3.94v1.57h-5.56Z"/>
        <path class="cls-1" d="m102.36,77v-9.69h5.45v1.58h-3.83v2.48h3.38v1.56h-3.38v4.06h-1.62Z"/>
        <path class="cls-1" d="m108.71,77v-9.69h1.62v9.69h-1.62Zm.16-10.35l.96-2.81h1.41l-1.06,2.81h-1.31Z"/>
        <path class="cls-1" d="m114.12,77.15c-.5,0-.96-.05-1.39-.14-.43-.09-.8-.22-1.11-.39v-1.79c.35.18.73.33,1.14.44.41.11.81.16,1.2.16.56,0,.98-.07,1.24-.19.26-.13.4-.43.4-.89,0-.29-.06-.52-.17-.69-.11-.17-.31-.32-.58-.46s-.67-.29-1.17-.46c-.81-.28-1.38-.63-1.71-1.05-.33-.42-.49-1-.49-1.75,0-.89.26-1.58.78-2.06.52-.48,1.28-.72,2.28-.72.46,0,.9.04,1.3.12.4.08.73.17.98.29v1.79c-.66-.31-1.34-.47-2.06-.47-.51,0-.9.07-1.19.2-.29.14-.43.42-.43.85,0,.25.05.45.16.6.1.15.28.29.54.41.25.12.61.26,1.06.41.63.21,1.12.46,1.47.75s.58.62.72.99.2.79.2,1.25c0,.84-.26,1.52-.77,2.03-.51.51-1.3.77-2.37.77Z"/>
        <path class="cls-1" d="m118.39,77v-9.69h1.62v9.69h-1.62Z"/>
        <path class="cls-1" d="m125.17,77.15c-1.3,0-2.29-.44-2.99-1.32s-1.03-2.08-1.03-3.59c0-1.6.34-2.85,1.01-3.75s1.67-1.34,3-1.34c.46,0,.88.04,1.26.13.37.09.72.2,1.05.35v1.78c-.68-.35-1.41-.53-2.19-.53-.88,0-1.52.28-1.9.83-.39.55-.58,1.39-.58,2.53,0,2.13.83,3.19,2.5,3.19.38,0,.75-.04,1.12-.13.37-.08.72-.21,1.06-.38v1.79c-.33.13-.68.23-1.05.32-.37.08-.79.12-1.26.12Z"/>
        <path class="cls-1" d="m128.01,77l2.96-9.69h1.78l2.95,9.69h-1.68l-.73-2.33h-2.85l-.72,2.33h-1.7Zm2.66-3.9h2.37l-1.19-3.89-1.18,3.89Z"/>
        <path class="cls-1" d="m3.53,93.73v-9.69h1.41l3.67,6.45v-6.45h1.62v9.69h-1.41l-3.67-6.46v6.46h-1.62Z"/>
        <path class="cls-1" d="m15.01,93.88c-1.07,0-1.91-.32-2.53-.97-.62-.65-.93-1.59-.93-2.82v-6.05h1.62v5.9c0,.74.16,1.3.48,1.66.32.37.77.55,1.36.55s1.04-.18,1.35-.55c.32-.36.48-.92.48-1.66v-5.9h1.62v6.05c0,1.23-.31,2.17-.93,2.82-.62.65-1.46.97-2.53.97Z"/>
        <path class="cls-1" d="m23.55,93.88c-1.3,0-2.29-.44-2.99-1.32s-1.03-2.08-1.03-3.59c0-1.6.34-2.85,1.01-3.75.67-.89,1.67-1.34,3-1.34.46,0,.88.04,1.26.13.37.09.72.2,1.05.35v1.78c-.68-.35-1.41-.53-2.19-.53-.88,0-1.52.28-1.9.83-.39.55-.58,1.39-.58,2.53,0,2.13.83,3.19,2.5,3.19.38,0,.75-.04,1.12-.13.37-.08.72-.21,1.06-.38v1.79c-.33.13-.68.23-1.05.32-.37.08-.79.12-1.26.12Z"/>
        <path class="cls-1" d="m27,93.73v-9.69h1.62v8.12h3.81v1.57h-5.44Z"/>
        <path class="cls-1" d="m33.33,93.73v-9.69h5.56v1.58h-3.94v2.48h3.49v1.56h-3.49v2.5h3.94v1.57h-5.56Z"/>
        <path class="cls-1" d="m39.78,93.73l2.96-9.69h1.78l2.95,9.69h-1.68l-.73-2.33h-2.85l-.72,2.33h-1.7Zm2.66-3.9h2.37l-1.19-3.89-1.18,3.89Z"/>
        <path class="cls-1" d="m48.6,93.73v-9.69h3.72c.89,0,1.55.29,1.96.88.42.59.63,1.38.63,2.37,0,.65-.13,1.21-.4,1.68-.27.47-.65.81-1.14,1.02.13.13.23.27.31.42.08.15.15.35.23.6l.94,2.71h-1.68l-.92-2.6c-.08-.22-.17-.38-.26-.47s-.26-.14-.48-.14h-1.28v3.21h-1.62Zm1.62-4.89h1.67c.42,0,.76-.12,1-.35.24-.24.36-.63.36-1.2s-.1-.94-.31-1.19c-.21-.25-.53-.38-.95-.38h-1.77v3.12Z"/>
        <path class="cls-1" d="m58.68,93.73v-9.69h5.56v1.58h-3.94v2.48h3.49v1.56h-3.49v2.5h3.94v1.57h-5.56Z"/>
        <path class="cls-1" d="m68.02,93.73v-9.69h3.63c.61,0,1.11.14,1.5.44s.68.69.87,1.19c.19.5.29,1.07.29,1.72s-.11,1.23-.33,1.73-.53.89-.94,1.17c-.4.28-.88.41-1.44.41h-1.96v3.04h-1.62Zm1.62-4.65h1.62c.46,0,.82-.15,1.05-.46.24-.31.36-.72.36-1.24,0-.56-.11-.99-.34-1.29-.22-.3-.56-.44-1.01-.44h-1.68v3.43Z"/>
        <path class="cls-1" d="m74.02,93.73l2.96-9.69h1.78l2.95,9.69h-1.68l-.73-2.33h-2.85l-.72,2.33h-1.7Zm2.66-3.9h2.37l-1.19-3.89-1.18,3.89Z"/>
        <path class="cls-1" d="m82.84,93.73v-9.69h3.72c.89,0,1.55.29,1.96.88.42.59.63,1.38.63,2.37,0,.65-.13,1.21-.4,1.68-.27.47-.65.81-1.14,1.02.13.13.23.27.31.42.08.15.15.35.23.6l.94,2.71h-1.68l-.92-2.6c-.08-.22-.17-.38-.26-.47s-.26-.14-.48-.14h-1.28v3.21h-1.62Zm1.62-4.89h1.67c.42,0,.76-.12,1-.35.24-.24.36-.63.36-1.2s-.1-.94-.31-1.19c-.21-.25-.53-.38-.95-.38h-1.77v3.12Z"/>
        <path class="cls-1" d="m92.18,93.73v-8.12h-2.38v-1.56h6.38v1.56h-2.37v8.12h-1.62Z"/>
        <path class="cls-1" d="m97.06,93.73v-9.69h1.62v9.69h-1.62Zm.16-10.35l.96-2.81h1.41l-1.06,2.81h-1.31Z"/>
        <path class="cls-1" d="m103.85,93.88c-1.3,0-2.29-.44-2.99-1.32s-1.03-2.08-1.03-3.59c0-1.6.34-2.85,1.01-3.75s1.67-1.34,3-1.34c.46,0,.88.04,1.26.13.37.09.72.2,1.05.35v1.78c-.68-.35-1.41-.53-2.19-.53-.88,0-1.52.28-1.9.83-.39.55-.58,1.39-.58,2.53,0,2.13.83,3.19,2.5,3.19.38,0,.75-.04,1.12-.13.37-.08.72-.21,1.06-.38v1.79c-.33.13-.68.23-1.05.32-.37.08-.79.12-1.26.12Z"/>
        <path class="cls-1" d="m110.7,93.88c-1.07,0-1.91-.32-2.53-.97-.62-.65-.93-1.59-.93-2.82v-6.05h1.62v5.9c0,.74.16,1.3.48,1.66.32.37.77.55,1.36.55s1.04-.18,1.35-.55c.32-.36.48-.92.48-1.66v-5.9h1.62v6.05c0,1.23-.31,2.17-.93,2.82-.62.65-1.46.97-2.53.97Z"/>
        <path class="cls-1" d="m115.46,93.73v-9.69h1.62v8.12h3.81v1.57h-5.44Z"/>
        <path class="cls-1" d="m121.55,93.73l2.96-9.69h1.78l2.95,9.69h-1.68l-.73-2.33h-2.85l-.72,2.33h-1.7Zm2.66-3.9h2.37l-1.19-3.89-1.18,3.89Z"/>
        <path class="cls-1" d="m132.24,93.88c-.5,0-.96-.05-1.39-.14-.43-.09-.8-.22-1.11-.39v-1.79c.35.18.73.33,1.14.44.41.11.81.16,1.2.16.56,0,.98-.07,1.24-.19.26-.13.4-.43.4-.89,0-.29-.06-.52-.17-.69-.11-.17-.31-.32-.58-.46s-.67-.29-1.17-.46c-.81-.28-1.38-.63-1.71-1.05-.33-.42-.49-1-.49-1.75,0-.89.26-1.58.78-2.06.52-.48,1.28-.72,2.28-.72.46,0,.9.04,1.3.12.4.08.73.17.98.29v1.79c-.66-.31-1.34-.47-2.06-.47-.51,0-.9.07-1.19.2-.29.14-.43.42-.43.85,0,.25.05.45.16.6.1.15.28.29.54.41.25.12.61.26,1.06.41.63.21,1.12.46,1.47.75s.58.62.72.99.2.79.2,1.25c0,.84-.26,1.52-.77,2.03-.51.51-1.3.77-2.37.77Z"/>
      </g>
      <polyline class="cls-2" points="135.7 55.39 92.3 55.39 63.38 13.88 63.38 55.29 3.19 55.29"/>
      <polyline class="cls-2" points="3.01 3.01 69.74 3.01 98.32 44.42 98.32 3.01 135.7 3.01"/>
    </g>
  </g>
</svg>